<svg width="393" height="735" viewBox="0 0 393 735" fill="none" xmlns="http://www.w3.org/2000/svg">
<path d="M592.75 34C592.75 36.2682 591.747 38.5031 589.797 40.6856C587.845 42.8696 584.954 44.9883 581.211 47.0145C573.725 51.0667 562.877 54.7237 549.45 57.7979C522.6 63.9454 485.494 67.75 444.5 67.75C403.506 67.75 366.4 63.9454 339.55 57.7979C326.123 54.7237 315.275 51.0667 307.789 47.0145C304.046 44.9883 301.155 42.8696 299.203 40.6856C297.253 38.5031 296.25 36.2682 296.25 34C296.25 31.7318 297.253 29.4969 299.203 27.3144C301.155 25.1304 304.046 23.0117 307.789 20.9855C315.275 16.9333 326.123 13.2763 339.55 10.2021C366.4 4.05458 403.506 0.25 444.5 0.25C485.494 0.25 522.6 4.05458 549.45 10.2021C562.877 13.2763 573.725 16.9333 581.211 20.9855C584.954 23.0117 587.845 25.1304 589.797 27.3144C591.747 29.4969 592.75 31.7318 592.75 34Z" stroke="white" stroke-width="0.5"/>
<path d="M598.75 195C598.75 197.268 597.747 199.503 595.797 201.686C593.845 203.87 590.954 205.988 587.211 208.014C579.725 212.067 568.877 215.724 555.45 218.798C528.6 224.945 491.494 228.75 450.5 228.75C409.506 228.75 372.4 224.945 345.55 218.798C332.123 215.724 321.275 212.067 313.789 208.014C310.046 205.988 307.155 203.87 305.203 201.686C303.253 199.503 302.25 197.268 302.25 195C302.25 192.732 303.253 190.497 305.203 188.314C307.155 186.13 310.046 184.012 313.789 181.986C321.275 177.933 332.123 174.276 345.55 171.202C372.4 165.055 409.506 161.25 450.5 161.25C491.494 161.25 528.6 165.055 555.45 171.202C568.877 174.276 579.725 177.933 587.211 181.986C590.954 184.012 593.845 186.13 595.797 188.314C597.747 190.497 598.75 192.732 598.75 195Z" stroke="white" stroke-width="0.5"/>
<path d="M592.75 142C592.75 144.268 591.747 146.503 589.797 148.686C587.845 150.87 584.954 152.988 581.211 155.014C573.725 159.067 562.877 162.724 549.45 165.798C522.6 171.945 485.494 175.75 444.5 175.75C403.506 175.75 366.4 171.945 339.55 165.798C326.123 162.724 315.275 159.067 307.789 155.014C304.046 152.988 301.155 150.87 299.203 148.686C297.253 146.503 296.25 144.268 296.25 142C296.25 139.732 297.253 137.497 299.203 135.314C301.155 133.13 304.046 131.012 307.789 128.986C315.275 124.933 326.123 121.276 339.55 118.202C366.4 112.055 403.506 108.25 444.5 108.25C485.494 108.25 522.6 112.055 549.45 118.202C562.877 121.276 573.725 124.933 581.211 128.986C584.954 131.012 587.845 133.13 589.797 135.314C591.747 137.497 592.75 139.732 592.75 142Z" stroke="white" stroke-width="0.5"/>
<path d="M592.75 87.5C592.75 89.7325 591.748 91.9332 589.798 94.0835C587.846 96.2351 584.956 98.3227 581.212 100.319C573.726 104.312 562.878 107.915 549.45 110.944C522.6 117.001 485.494 120.75 444.5 120.75C403.506 120.75 366.4 117.001 339.55 110.944C326.122 107.915 315.274 104.312 307.788 100.319C304.044 98.3227 301.154 96.2351 299.202 94.0835C297.252 91.9332 296.25 89.7325 296.25 87.5C296.25 85.2675 297.252 83.0668 299.202 80.9165C301.154 78.7649 304.044 76.6773 307.788 74.6809C315.274 70.6882 326.122 67.0848 339.55 64.0558C366.4 57.9986 403.506 54.25 444.5 54.25C485.494 54.25 522.6 57.9986 549.45 64.0558C562.878 67.0848 573.726 70.6882 581.212 74.6809C584.956 76.6773 587.846 78.7649 589.798 80.9165C591.748 83.0668 592.75 85.2675 592.75 87.5Z" stroke="white" stroke-width="0.5"/>
<g filter="url(#filter0_d_23_180)">
<path d="M267.75 539C267.75 642.689 182.799 726.75 78 726.75C-26.7985 726.75 -111.75 642.689 -111.75 539C-111.75 435.311 -26.7985 351.25 78 351.25C182.799 351.25 267.75 435.311 267.75 539Z" stroke="white" stroke-width="0.5" shape-rendering="crispEdges"/>
</g>
<defs>
<filter id="filter0_d_23_180" x="-116" y="351" width="388" height="384" filterUnits="userSpaceOnUse" color-interpolation-filters="sRGB">
<feFlood flood-opacity="0" result="BackgroundImageFix"/>
<feColorMatrix in="SourceAlpha" type="matrix" values="0 0 0 0 0 0 0 0 0 0 0 0 0 0 0 0 0 0 127 0" result="hardAlpha"/>
<feOffset dy="4"/>
<feGaussianBlur stdDeviation="2"/>
<feComposite in2="hardAlpha" operator="out"/>
<feColorMatrix type="matrix" values="0 0 0 0 0 0 0 0 0 0 0 0 0 0 0 0 0 0 0.25 0"/>
<feBlend mode="normal" in2="BackgroundImageFix" result="effect1_dropShadow_23_180"/>
<feBlend mode="normal" in="SourceGraphic" in2="effect1_dropShadow_23_180" result="shape"/>
</filter>
</defs>
</svg>
