<svg xmlns="http://www.w3.org/2000/svg" xmlns:xlink="http://www.w3.org/1999/xlink" width="500" zoomAndPan="magnify" viewBox="0 0 375 374.999991" height="500" preserveAspectRatio="xMidYMid meet" version="1.0"><defs><clipPath id="035f8ee70e"><path d="M 148 193 L 201 193 L 201 262.023438 L 148 262.023438 Z M 148 193 " clip-rule="nonzero"/></clipPath><clipPath id="ddd0352e62"><path d="M 200 193 L 252 193 L 252 262.023438 L 200 262.023438 Z M 200 193 " clip-rule="nonzero"/></clipPath></defs><g clip-path="url(#035f8ee70e)"><path fill="#5cd0e6" d="M 200.074219 262.023438 L 148.882812 239.015625 L 148.882812 193.003906 L 200.074219 216.011719 Z M 200.074219 262.023438 " fill-opacity="1" fill-rule="nonzero"/></g><path fill="#552b3a" d="M 179.597656 206.808594 L 169.359375 202.207031 L 169.359375 248.21875 L 179.597656 252.820312 Z M 179.597656 206.808594 " fill-opacity="1" fill-rule="nonzero"/><g clip-path="url(#ddd0352e62)"><path fill="#5cd0e6" d="M 200.074219 262.023438 L 251.265625 239.015625 L 251.265625 193.003906 L 200.074219 216.011719 Z M 200.074219 262.023438 " fill-opacity="1" fill-rule="nonzero"/></g><path fill="#2d6570" d="M 148.882812 193.003906 L 200.074219 170 L 251.265625 193.003906 L 200.074219 216.011719 Z M 148.882812 193.003906 " fill-opacity="1" fill-rule="nonzero"/><path fill="#4ba9bb" d="M 189.835938 231.347656 L 138.644531 208.34375 L 148.882812 193.003906 L 200.074219 216.011719 Z M 189.835938 231.347656 " fill-opacity="1" fill-rule="nonzero"/><path fill="#552b3a" d="M 220.550781 206.808594 L 230.789062 202.207031 L 230.789062 248.21875 L 220.550781 252.820312 Z M 220.550781 206.808594 " fill-opacity="1" fill-rule="nonzero"/><path fill="#4ba9bb" d="M 210.3125 231.347656 L 261.503906 208.34375 L 251.265625 193.003906 L 200.074219 216.011719 Z M 210.3125 231.347656 " fill-opacity="1" fill-rule="nonzero"/><path fill="#5cd0e6" d="M 113.089844 196.929688 L 159.753906 149.546875 L 170.703125 160.300781 L 124.039062 207.6875 Z M 113.089844 196.929688 " fill-opacity="1" fill-rule="nonzero"/><path fill="#552b3a" d="M 132.832031 176.882812 L 140.011719 169.59375 L 150.960938 180.347656 L 143.78125 187.636719 Z M 132.832031 176.882812 " fill-opacity="1" fill-rule="nonzero"/><path fill="#c56286" d="M 154.648438 164.140625 L 141.835938 171.390625 L 134.535156 164.21875 L 141.578125 151.304688 C 142.515625 149.585938 144.839844 149.242188 146.234375 150.613281 L 155.261719 159.480469 C 156.65625 160.851562 156.351562 163.175781 154.648438 164.140625 Z M 154.648438 164.140625 " fill-opacity="1" fill-rule="nonzero"/><path fill="#c56286" d="M 127.609375 191.59375 L 134.65625 178.679688 L 127.355469 171.507812 L 114.542969 178.757812 C 112.839844 179.722656 112.53125 182.046875 113.929688 183.417969 L 122.953125 192.285156 C 124.351562 193.65625 126.671875 193.3125 127.609375 191.59375 Z M 127.609375 191.59375 " fill-opacity="1" fill-rule="nonzero"/><path fill="#e6739d" d="M 123.738281 171.535156 L 134.503906 160.601562 L 145.457031 171.355469 L 134.6875 182.292969 Z M 123.738281 171.535156 " fill-opacity="1" fill-rule="nonzero"/><path fill="#e6739d" d="M 191.40625 172.753906 C 188.15625 170.667969 183.882812 171.644531 181.859375 174.929688 L 181.128906 176.117188 L 179.953125 175.363281 C 176.703125 173.28125 172.429688 174.253906 170.40625 177.539062 C 168.382812 180.824219 169.378906 185.179688 172.628906 187.261719 L 185.574219 195.5625 L 193.628906 182.472656 C 195.652344 179.1875 194.65625 174.835938 191.40625 172.753906 Z M 191.40625 172.753906 " fill-opacity="1" fill-rule="nonzero"/><path fill="#e6739d" d="M 201.644531 136.964844 C 198.394531 134.882812 194.121094 135.855469 192.097656 139.140625 L 191.367188 140.332031 L 190.191406 139.578125 C 186.941406 137.492188 182.667969 138.46875 180.644531 141.753906 C 178.621094 145.039062 179.617188 149.390625 182.867188 151.476562 L 195.8125 159.773438 L 203.867188 146.6875 C 205.890625 143.402344 204.894531 139.050781 201.644531 136.964844 Z M 201.644531 136.964844 " fill-opacity="1" fill-rule="nonzero"/><path fill="#e6739d" d="M 176.046875 114.859375 C 172.796875 112.777344 168.523438 113.75 166.503906 117.035156 L 165.769531 118.226562 L 164.59375 117.472656 C 161.34375 115.386719 157.070312 116.363281 155.046875 119.648438 C 153.027344 122.933594 154.019531 127.285156 157.269531 129.371094 L 170.214844 137.667969 L 178.269531 124.582031 C 180.292969 121.296875 179.296875 116.941406 176.046875 114.859375 Z M 176.046875 114.859375 " fill-opacity="1" fill-rule="nonzero"/><path fill="#e6739d" d="M 229.507812 178.476562 C 227.683594 175.074219 223.476562 173.847656 220.109375 175.734375 L 218.886719 176.417969 L 218.226562 175.1875 C 216.40625 171.785156 212.199219 170.558594 208.828125 172.445312 C 205.460938 174.332031 204.207031 178.617188 206.03125 182.015625 L 213.289062 195.5625 L 226.707031 188.046875 C 230.074219 186.160156 231.328125 181.875 229.507812 178.476562 Z M 229.507812 178.476562 " fill-opacity="1" fill-rule="nonzero"/><path fill="#e6739d" d="M 260.667969 159.023438 C 258.84375 155.621094 254.636719 154.394531 251.269531 156.28125 L 250.050781 156.964844 L 249.390625 155.730469 C 247.566406 152.332031 243.359375 151.105469 239.992188 152.992188 C 236.625 154.878906 235.371094 159.164062 237.191406 162.5625 L 244.453125 176.109375 L 257.867188 168.59375 C 261.238281 166.707031 262.492188 162.421875 260.667969 159.023438 Z M 260.667969 159.023438 " fill-opacity="1" fill-rule="nonzero"/><path fill="#e6739d" d="M 237.183594 133.460938 C 235.363281 130.058594 231.15625 128.832031 227.785156 130.71875 L 226.566406 131.402344 L 225.90625 130.171875 C 224.085938 126.769531 219.875 125.542969 216.507812 127.429688 C 213.140625 129.316406 211.886719 133.601562 213.710938 137 L 220.96875 150.546875 L 234.386719 143.03125 C 237.753906 141.144531 239.007812 136.859375 237.183594 133.460938 Z M 237.183594 133.460938 " fill-opacity="1" fill-rule="nonzero"/><path fill="#e6739d" d="M 137.808594 122.238281 C 135.984375 118.839844 131.777344 117.613281 128.410156 119.5 L 127.1875 120.179688 L 126.527344 118.949219 C 124.707031 115.550781 120.5 114.324219 117.128906 116.207031 C 113.761719 118.09375 112.507812 122.378906 114.332031 125.78125 L 121.589844 139.324219 L 135.007812 131.8125 C 138.375 129.925781 139.628906 125.640625 137.808594 122.238281 Z M 137.808594 122.238281 " fill-opacity="1" fill-rule="nonzero"/><path fill="#e6739d" d="M 260.933594 118.476562 C 259.691406 116.15625 256.828125 115.320312 254.53125 116.605469 L 253.699219 117.074219 L 253.25 116.234375 C 252.007812 113.917969 249.144531 113.082031 246.847656 114.367188 C 244.554688 115.652344 243.699219 118.570312 244.941406 120.886719 L 249.886719 130.113281 L 259.027344 124.996094 C 261.324219 123.710938 262.175781 120.792969 260.933594 118.476562 Z M 260.933594 118.476562 " fill-opacity="1" fill-rule="nonzero"/></svg>