<svg width="198" height="198" viewBox="0 0 198 198" fill="none" xmlns="http://www.w3.org/2000/svg">
<path d="M166.615 164.902C165.208 164.902 163.865 164.09 163.255 162.72C162.432 160.871 163.266 158.699 165.12 157.876C180.063 151.241 189.724 136.397 189.724 120.064C189.724 97.2564 171.141 78.6991 148.302 78.6991C133.703 78.6991 120.458 86.1471 112.875 98.6262C111.823 100.355 109.563 100.907 107.828 99.8606C106.094 98.8085 105.542 96.5533 106.594 94.8189C115.521 80.1262 131.115 71.3606 148.302 71.3606C175.193 71.3606 197.073 93.2096 197.073 120.064C197.073 139.293 185.703 156.767 168.109 164.585C167.62 164.798 167.115 164.897 166.615 164.902Z" fill="#3F585C"/>
<path d="M136.943 167.324C136.635 167.324 136.323 167.288 136.016 167.21C127.25 164.939 119.286 160.251 112.99 153.652C111.589 152.183 111.646 149.861 113.115 148.465C114.589 147.069 116.917 147.126 118.307 148.59C123.661 154.199 130.417 158.178 137.859 160.105C139.823 160.616 141.005 162.616 140.495 164.579C140.063 166.23 138.573 167.324 136.943 167.324Z" fill="#3F585C"/>
<path d="M193.677 192.871C192.276 192.871 190.938 192.064 190.328 190.704L189.208 188.194C184.797 178.277 179.313 165.944 170.578 161.491C168.766 160.569 168.052 158.355 168.974 156.553C169.891 154.746 172.104 154.032 173.911 154.949C184.969 160.585 191.042 174.241 195.922 185.215L197.026 187.699C197.859 189.548 197.031 191.72 195.177 192.548C194.693 192.767 194.182 192.871 193.677 192.871Z" fill="#3F585C"/>
<path d="M146.198 131.532C139.807 131.532 134.401 128.928 131.578 126.715C129.583 125.147 129.234 122.267 130.802 120.272C132.365 118.288 135.234 117.939 137.229 119.486C138.12 120.163 146.036 125.782 154.958 119.381C157.021 117.907 159.891 118.376 161.365 120.434C162.844 122.491 162.375 125.355 160.313 126.835C155.49 130.293 150.609 131.532 146.198 131.532Z" fill="#3F585C"/>
<path d="M133.615 108.975C130.651 108.975 128.24 106.564 128.24 103.6C128.24 100.637 130.651 98.2252 133.615 98.2252C136.589 98.2252 139.005 100.637 139.005 103.6C139.005 106.564 136.589 108.975 133.615 108.975Z" fill="#3F585C"/>
<path d="M158.427 108.975C155.458 108.975 153.047 106.564 153.047 103.6C153.047 100.637 155.458 98.2252 158.427 98.2252C161.396 98.2252 163.813 100.637 163.813 103.6C163.813 106.564 161.396 108.975 158.427 108.975Z" fill="#3F585C"/>
<path d="M32.2083 182.058C31.4375 182.058 30.7083 182.006 30.0313 181.887C26.8281 181.319 24.5781 179.475 23.6875 176.694C20.4792 166.678 31.2292 158.538 35.8177 155.058L36.5729 154.486C38.1771 153.246 40.4844 153.538 41.7292 155.147C42.9688 156.751 42.6719 159.053 41.0625 160.293L40.2604 160.907C36.9115 163.444 29.0625 169.387 30.6875 174.465C30.8125 174.574 31.6615 174.871 33.5469 174.663C39.1354 174.032 47.25 169.762 49.4635 166.907C50.7031 165.308 53.0156 165.022 54.6146 166.256C56.2188 167.496 56.5156 169.803 55.2708 171.407C51.3958 176.397 39.8802 182.058 32.2083 182.058Z" fill="#3F585C"/>
<path d="M19.7709 143.803C18.8854 143.803 17.9896 143.486 17.2813 142.835L9.87502 136.006C8.38023 134.631 8.28648 132.308 9.66669 130.824C11.0417 129.335 13.3646 129.241 14.8542 130.611L22.2656 137.439C23.7552 138.814 23.849 141.137 22.474 142.626C21.75 143.407 20.7656 143.803 19.7709 143.803Z" fill="#F17896"/>
<mask id="mask0_28_147" style="mask-type:luminance" maskUnits="userSpaceOnUse" x="0" y="146" width="20" height="11">
<path d="M0 146.204H19.125V156.871H0V146.204Z" fill="white"/>
</mask>
<g mask="url(#mask0_28_147)">
<path d="M15.2136 156.324C14.9375 156.324 14.6563 156.293 14.375 156.23C10.9375 155.428 3.48961 154.6 3.41149 154.595C1.39586 154.371 -0.0572638 152.559 0.166695 150.543C0.385444 148.527 2.19795 147.079 4.21878 147.298C4.5417 147.335 12.1823 148.178 16.0469 149.085C18.0209 149.543 19.25 151.512 18.7917 153.491C18.3959 155.178 16.8854 156.324 15.2136 156.324Z" fill="#F17896"/>
</g>
<path d="M6.09897 175.1C4.66147 175.1 3.29688 174.256 2.70834 172.85C1.92709 170.98 2.8073 168.829 4.67709 168.043C6.00522 167.496 7.32292 166.72 8.72397 165.902C10.1198 165.079 11.5625 164.236 13.151 163.527C15.0052 162.704 17.1771 163.538 18 165.387C18.8281 167.241 17.9948 169.407 16.1406 170.236C14.9271 170.772 13.7188 171.48 12.4375 172.23C10.8906 173.137 9.29167 174.074 7.51563 174.819C7.05209 175.012 6.57293 175.1 6.09897 175.1Z" fill="#F17896"/>
<path d="M65.7396 175.053C65.4323 175.053 65.125 175.017 64.8125 174.933C43.3334 169.361 28.3386 149.975 28.3386 127.788C28.3386 100.933 50.2136 79.0845 77.1042 79.0845C104 79.0845 125.875 100.933 125.875 127.788C125.875 147.017 114.505 164.491 96.9063 172.308C95.0521 173.142 92.8854 172.303 92.0573 170.449C91.2344 168.595 92.0677 166.428 93.9219 165.605C108.87 158.965 118.531 144.121 118.531 127.788C118.531 104.98 99.9479 86.4231 77.1042 86.4231C54.2656 86.4231 35.6875 104.98 35.6875 127.788C35.6875 146.631 48.4219 163.095 66.6615 167.835C68.6302 168.345 69.8073 170.35 69.2917 172.308C68.8594 173.96 67.3698 175.053 65.7396 175.053Z" fill="#3F585C"/>
<path d="M125.276 197.808C123.875 197.808 122.536 197.006 121.922 195.647C116.453 183.501 108.026 173.621 99.3802 169.215C97.5729 168.293 96.8542 166.085 97.776 164.282C98.6927 162.475 100.906 161.756 102.714 162.678C112.802 167.819 122.49 179.017 128.625 192.637C129.453 194.486 128.63 196.657 126.781 197.486C126.292 197.704 125.781 197.808 125.276 197.808Z" fill="#3F585C"/>
<path d="M32.0104 197.809C31.6719 197.809 31.3282 197.762 30.9896 197.663C29.0417 197.1 27.9167 195.069 28.4792 193.126C28.6511 192.538 32.7396 178.652 41.0104 172.532C42.6459 171.335 44.948 171.673 46.1511 173.303C47.3594 174.934 47.0157 177.23 45.3854 178.434C40.1823 182.282 36.5104 191.814 35.5365 195.163C35.0729 196.762 33.6042 197.809 32.0104 197.809Z" fill="#3F585C"/>
<path d="M86.6094 137.751C80.2136 137.751 74.8125 135.147 71.9896 132.934C69.9948 131.371 69.6511 128.486 71.2136 126.491C72.7761 124.512 75.6511 124.157 77.6407 125.704C78.5417 126.392 86.4479 131.991 95.3698 125.6C97.4271 124.121 100.297 124.595 101.776 126.652C103.25 128.715 102.781 131.579 100.719 133.053C95.8959 136.512 91.0157 137.751 86.6094 137.751Z" fill="#3F585C"/>
<path d="M74.0365 115.199C71.0625 115.199 68.6511 112.782 68.6511 109.819C68.6511 106.855 71.0677 104.449 74.0365 104.449C77 104.449 79.4167 106.861 79.4167 109.819C79.4167 112.782 77.0052 115.199 74.0365 115.199Z" fill="#3F585C"/>
<path d="M98.8438 115.199C95.8698 115.199 93.4531 112.782 93.4531 109.819C93.4531 106.855 95.875 104.449 98.8438 104.449C101.813 104.449 104.219 106.861 104.219 109.819C104.219 112.782 101.807 115.199 98.8438 115.199Z" fill="#3F585C"/>
<path d="M98.8386 75.9439C97.9792 75.9439 97.1407 75.6991 96.349 75.2147C96.2761 75.1679 96.2032 75.121 96.1303 75.0689C84.5938 66.8241 75.724 59.272 68.198 51.2981C64 46.7772 60.9011 42.6626 58.4428 38.3241C53.7448 30.0637 54.1875 21.246 59.75 12.1158C63.724 5.64181 69.375 1.68868 76.5625 0.370976C85.0625 -1.16548 93.5469 2.15743 98.8438 8.73035C99.3803 8.06368 99.948 7.43348 100.542 6.83973C104.844 2.5116 110.891 0.0324341 117.13 0.0324341C122.542 0.0324341 127.755 1.8866 131.818 5.24598C138.646 10.8762 142.229 18.2876 142.458 27.2564C142.557 31.4126 140.995 34.9699 139.448 37.897C136.109 44.1731 131.547 49.2147 127.531 53.3137C120.359 60.6106 112.162 67.4699 101.729 74.9074C101.245 75.2512 100.281 75.9439 98.8386 75.9439ZM80.7969 7.3241C79.8334 7.3241 78.849 7.41264 77.8855 7.58973C72.7761 8.52723 68.8907 11.2564 66.0261 15.9387C61.8386 22.8033 61.4584 28.7668 64.8334 34.6991C67.0053 38.5324 69.7813 42.2147 73.5678 46.2824C80.3907 53.5168 88.448 60.4387 98.8125 67.9543C108.313 61.0897 115.76 54.8033 122.276 48.1731C125.927 44.4491 130.057 39.9022 132.953 34.4647C134.104 32.272 135.172 29.897 135.115 27.4283C134.938 20.5897 132.328 15.1835 127.13 10.897C124.38 8.62098 120.828 7.37098 117.125 7.37098C112.833 7.37098 108.682 9.06368 105.75 12.0116C104.333 13.4335 103.182 15.0897 102.13 17.2251C101.531 18.4543 100.297 19.246 98.9323 19.2772C97.5313 19.3762 96.2917 18.5897 95.625 17.397C95.3803 16.9595 95.224 16.6626 95.0782 16.371L94.9636 16.147C92.0782 10.6262 86.7761 7.3241 80.7969 7.3241Z" fill="#F17896"/>
<path d="M121.005 37.2824C120.047 37.2824 119.099 36.9126 118.38 36.1783C116.958 34.7303 116.984 32.4126 118.432 30.9908C120.073 29.3918 120.792 26.6887 120.229 24.2616C119.964 23.1262 119.177 21.1053 116.885 20.3501C114.958 19.7147 113.911 17.6366 114.547 15.7147C115.182 13.7876 117.271 12.7408 119.182 13.3762C123.354 14.7512 126.339 18.1106 127.385 22.6053C128.526 27.5064 127.026 32.8605 123.573 36.2355C122.859 36.9387 121.932 37.2824 121.005 37.2824Z" fill="#F17896"/>
<path d="M114.224 44.9231C113.281 44.9231 112.333 44.5273 111.63 43.845C110.948 43.1627 110.552 42.1991 110.552 41.2512C110.552 40.2877 110.948 39.3398 111.63 38.6575C113.016 37.2773 115.453 37.2773 116.844 38.6575C117.526 39.3398 117.922 40.2877 117.922 41.2512C117.922 42.1991 117.526 43.1627 116.844 43.845C116.141 44.5273 115.193 44.9231 114.224 44.9231Z" fill="#F17896"/>
</svg>
