<svg width="195" height="56" viewBox="0 0 195 56" fill="none" xmlns="http://www.w3.org/2000/svg">
<path d="M26.208 7.52697C26.208 6.18297 26.64 5.17497 27.504 4.50297C28.368 3.79897 29.36 3.44697 30.48 3.44697C31.024 3.44697 31.552 3.54297 32.064 3.73497C32.576 3.89497 33.04 4.15097 33.456 4.50297C33.872 4.85497 34.192 5.28697 34.416 5.79897C34.672 6.27897 34.8 6.85497 34.8 7.52697V21.063H37.344V7.52697C37.344 6.18297 37.776 5.17497 38.64 4.50297C39.504 3.79897 40.496 3.44697 41.616 3.44697C42.16 3.44697 42.688 3.54297 43.2 3.73497C43.712 3.89497 44.176 4.15097 44.592 4.50297C45.008 4.85497 45.328 5.28697 45.552 5.79897C45.808 6.27897 45.936 6.85497 45.936 7.52697V48.519H37.344V28.935H34.8V48.519H26.208V7.52697ZM9.744 46.359C8.304 46.359 7.12 46.231 6.192 45.975C5.264 45.751 4.544 45.367 4.032 44.823C3.52 44.279 3.168 43.543 2.976 42.615C2.784 41.687 2.688 40.535 2.688 39.159V9.73497C2.688 8.10297 3.12 6.91897 3.984 6.18297C4.88 5.44697 6 5.07897 7.344 5.07897C8.688 5.07897 9.776 5.44697 10.608 6.18297C11.44 6.91897 11.856 8.10297 11.856 9.73497V37.095C11.856 37.639 11.936 37.991 12.096 38.151C12.288 38.279 12.656 38.343 13.2 38.343H20.352C21.12 38.343 21.76 38.455 22.272 38.679C22.816 38.903 23.248 39.207 23.568 39.591C23.888 39.975 24.112 40.407 24.24 40.887C24.368 41.367 24.432 41.863 24.432 42.375C24.432 42.887 24.352 43.383 24.192 43.863C24.064 44.343 23.84 44.759 23.52 45.111C23.232 45.495 22.816 45.799 22.272 46.023C21.76 46.247 21.12 46.359 20.352 46.359H9.744ZM82.416 28.695H78.048V30.039C78.048 32.791 77.728 35.207 77.088 37.287C76.48 39.335 75.632 41.079 74.544 42.519C73.488 43.927 72.24 45.031 70.8 45.831C69.392 46.663 67.904 47.223 66.336 47.511C65.344 47.703 64.416 47.591 63.552 47.175C62.688 46.759 62.128 46.135 61.872 45.303C61.52 44.183 61.536 43.143 61.92 42.183C62.336 41.191 63.072 40.471 64.128 40.023C64.928 39.703 65.648 39.319 66.288 38.871C66.928 38.423 67.472 37.831 67.92 37.095C68.368 36.359 68.704 35.431 68.928 34.311C69.184 33.159 69.312 31.719 69.312 29.991V14.007C69.312 13.591 69.232 13.319 69.072 13.191C68.944 13.063 68.688 12.999 68.304 12.999H63.504V29.415C63.504 32.167 63.12 34.487 62.352 36.375C61.584 38.231 60.608 39.751 59.424 40.935C58.272 42.119 56.992 42.999 55.584 43.575C54.208 44.151 52.912 44.503 51.696 44.631C50.608 44.759 49.696 44.567 48.96 44.055C48.224 43.543 47.776 42.855 47.616 41.991C47.424 40.967 47.488 40.039 47.808 39.207C48.16 38.343 48.928 37.655 50.112 37.143C50.688 36.887 51.264 36.615 51.84 36.327C52.416 36.007 52.928 35.575 53.376 35.031C53.856 34.487 54.224 33.767 54.48 32.871C54.768 31.975 54.912 30.807 54.912 29.367V14.151C54.912 13.735 54.832 13.463 54.672 13.335C54.544 13.207 54.288 13.143 53.904 13.143H51.312C50.64 13.143 50.064 13.031 49.584 12.807C49.104 12.583 48.704 12.295 48.384 11.943C48.096 11.559 47.872 11.127 47.712 10.647C47.584 10.167 47.52 9.68697 47.52 9.20697C47.52 8.72697 47.584 8.26297 47.712 7.81497C47.84 7.33497 48.048 6.90297 48.336 6.51897C48.656 6.13497 49.056 5.83097 49.536 5.60697C50.016 5.38297 50.608 5.27097 51.312 5.27097H71.664C73.008 5.27097 74.096 5.36697 74.928 5.55897C75.792 5.75097 76.448 6.07097 76.896 6.51897C77.344 6.96697 77.648 7.57497 77.808 8.34297C77.968 9.07897 78.048 10.023 78.048 11.175V20.535H82.416V8.10297C82.416 6.56697 82.896 5.41497 83.856 4.64697C84.816 3.84697 85.92 3.44697 87.168 3.44697C87.776 3.44697 88.368 3.55897 88.944 3.78297C89.52 3.97497 90.032 4.26297 90.48 4.64697C90.928 5.03097 91.28 5.51097 91.536 6.08697C91.824 6.66297 91.968 7.33497 91.968 8.10297V48.519H82.416V28.695Z" fill="#F17896"/>
<path d="M140.776 31.479L139.938 32.0252L139.952 32.0466L139.967 32.0671L140.776 31.479ZM140.776 36.231L141.585 36.8191L141.591 36.8107L141.597 36.802L140.776 36.231ZM126.52 37.287V36.287H125.82L125.58 36.9452L126.52 37.287ZM126.136 38.295L127.05 38.7011L127.057 38.6839L127.064 38.6664L126.136 38.295ZM125.704 39.207L124.81 38.7598L123.966 40.4476L125.836 40.1982L125.704 39.207ZM133.432 39.591L133.189 40.5611L133.201 40.564L133.213 40.5667L133.432 39.591ZM137.704 41.271L137.19 42.1285L137.197 42.1332L137.206 42.1379L137.704 41.271ZM141.016 44.199L140.221 44.8057L140.229 44.8159L141.016 44.199ZM143.128 48.519V49.519H144.45L144.09 48.2467L143.128 48.519ZM133.288 48.519L132.474 49.1002L132.773 49.519H133.288V48.519ZM130.936 46.263L131.484 45.4265L131.477 45.4218L130.936 46.263ZM127.912 44.919L128.187 43.9574L128.174 43.9538L128.161 43.9505L127.912 44.919ZM124.312 44.439L124.287 45.4387L124.312 44.439ZM120.376 44.727L120.212 43.7406L120.014 43.7736L119.844 43.8803L120.376 44.727ZM116.776 46.551L117.147 47.4795L116.776 46.551ZM112.792 47.799L112.565 46.825L112.552 46.8281L112.539 46.8316L112.792 47.799ZM108.664 48.567L108.551 47.5734L108.549 47.5737L108.664 48.567ZM104.584 48.759L104.559 49.7587L104.56 49.7587L104.584 48.759ZM101.56 47.703L102.234 46.9645L102.225 46.9563L102.216 46.9484L101.56 47.703ZM101.416 42.759L102.085 43.5023L102.095 43.4933L102.105 43.484L101.416 42.759ZM107.752 41.607L107.876 42.5993L107.888 42.5977L107.9 42.5959L107.752 41.607ZM111.4 40.791L111.115 39.8324L111.108 39.8346L111.4 40.791ZM114.616 39.399L114.114 38.5342L114.108 38.5378L114.102 38.5415L114.616 39.399ZM117.064 37.287L117.857 37.8967L119.095 36.287H117.064V37.287ZM102.088 36.231L101.267 36.802L101.273 36.8107L101.279 36.8191L102.088 36.231ZM102.04 31.479L101.219 30.9079L101.214 30.9156L102.04 31.479ZM117.832 14.823V13.823H116.832V14.823H117.832ZM117.784 16.119L118.781 16.202L118.781 16.202L117.784 16.119ZM117.64 17.223L116.656 17.0441L116.434 18.2655L117.675 18.2224L117.64 17.223ZM125.752 19.767L125.026 20.4547L125.032 20.4613L125.752 19.767ZM128.296 28.599V29.599H129.28L129.296 28.6147L128.296 28.599ZM119.32 28.599L118.324 28.5068L118.223 29.599H119.32V28.599ZM118.312 24.711L119.032 24.0173V24.0173L118.312 24.711ZM114.904 23.703L114.772 22.7117L114.38 22.764L114.13 23.0697L114.904 23.703ZM109.576 27.639L109.197 26.7134L109.576 27.639ZM100.072 28.023L99.4669 28.8191L99.4744 28.8248L99.482 28.8304L100.072 28.023ZM99.688 22.887L98.9447 22.218L98.9428 22.2202L99.688 22.887ZM101.992 21.783L102.092 22.778L102.093 22.7779L101.992 21.783ZM108.856 14.823H109.856V13.823H108.856V14.823ZM101.08 14.487L100.606 15.3674L100.619 15.3746L100.633 15.3814L101.08 14.487ZM100.024 13.623L99.25 14.2562L99.25 14.2562L100.024 13.623ZM99.352 12.471L98.4103 12.8073L98.4143 12.8187L98.4187 12.83L99.352 12.471ZM99.304 9.83097L98.3425 9.55625H98.3425L99.304 9.83097ZM99.928 8.63097L100.702 9.26421L100.715 9.24786L100.728 9.23097L99.928 8.63097ZM101.032 7.71897L100.585 6.82454L100.585 6.82454L101.032 7.71897ZM108.712 7.38297V8.38297H109.712V7.38297H108.712ZM109.912 4.16697L109.269 3.40126L109.269 3.40126L109.912 4.16697ZM116.824 4.16697L116.181 4.93267L116.188 4.93886L116.196 4.94491L116.824 4.16697ZM118.072 7.38297H117.072V8.38297H118.072V7.38297ZM125.944 7.71897L126.391 6.82454L126.391 6.82454L125.944 7.71897ZM127.048 8.63097L126.248 9.23097L126.261 9.24786L126.274 9.26421L127.048 8.63097ZM127.672 9.83097L128.634 9.55625L128.634 9.55625L127.672 9.83097ZM127.624 12.471L128.557 12.83L128.562 12.8187L128.566 12.8073L127.624 12.471ZM126.952 13.623L127.726 14.2562L127.726 14.2562L126.952 13.623ZM125.848 14.487L125.401 13.5925L125.387 13.5993L125.374 13.6065L125.848 14.487ZM132.76 4.64697L132.12 3.87875L132.113 3.8841L132.107 3.88956L132.76 4.64697ZM139.432 4.69497L138.777 5.45066L138.784 5.457L138.792 5.46319L139.432 4.69497ZM140.872 11.655H139.872V12.655H140.872V11.655ZM144.184 12.039L143.713 12.9213L143.713 12.9213L144.184 12.039ZM145.336 12.999L146.136 12.399L146.136 12.399L145.336 12.999ZM145.96 14.343L144.99 14.5855L144.992 14.5931L144.994 14.6006L145.96 14.343ZM145.96 17.271L146.926 17.5286L146.928 17.5211L146.93 17.5135L145.96 17.271ZM145.336 18.615L146.136 19.215L146.147 19.1998L146.158 19.1842L145.336 18.615ZM144.136 19.575L144.559 20.4812L144.571 20.4754L144.583 20.4694L144.136 19.575ZM140.872 19.911V18.911H139.872V19.911H140.872ZM140.872 28.791V29.791H141.872V28.791H140.872ZM131.368 28.791H130.368V29.791H131.368V28.791ZM138.136 31.375C139.244 31.375 139.718 31.6878 139.938 32.0252L141.614 30.9327C140.874 29.7982 139.588 29.375 138.136 29.375V31.375ZM139.967 32.0671C140.356 32.6016 140.544 33.18 140.544 33.831H142.544C142.544 32.7539 142.22 31.7643 141.585 30.8908L139.967 32.0671ZM140.544 33.831C140.544 34.4828 140.355 35.0848 139.955 35.6599L141.597 36.802C142.221 35.9051 142.544 34.9072 142.544 33.831H140.544ZM139.967 35.6428C139.716 35.9884 139.211 36.287 138.136 36.287V38.287C139.557 38.287 140.812 37.8815 141.585 36.8191L139.967 35.6428ZM138.136 36.287H126.52V38.287H138.136V36.287ZM125.58 36.9452C125.456 37.2881 125.331 37.6142 125.208 37.9236L127.064 38.6664C127.197 38.3357 127.328 37.9898 127.46 37.6287L125.58 36.9452ZM125.222 37.8888C125.101 38.1613 124.964 38.4515 124.81 38.7598L126.598 39.6542C126.764 39.3224 126.915 39.0046 127.05 38.7011L125.222 37.8888ZM125.836 40.1982C126.295 40.1371 126.753 40.0913 127.211 40.0608L127.077 38.0652C126.575 38.0987 126.073 38.1489 125.572 38.2157L125.836 40.1982ZM127.211 40.0608C127.67 40.0301 128.112 40.015 128.536 40.015V38.015C128.064 38.015 127.578 38.0318 127.077 38.0652L127.211 40.0608ZM128.536 40.015C130.19 40.015 131.74 40.1987 133.189 40.5611L133.675 38.6208C132.052 38.2153 130.338 38.015 128.536 38.015V40.015ZM133.213 40.5667C134.685 40.8971 136.008 41.4194 137.19 42.1285L138.218 40.4135C136.84 39.5865 135.315 38.9888 133.651 38.6153L133.213 40.5667ZM137.206 42.1379C138.366 42.8053 139.371 43.6913 140.221 44.8056L141.811 43.5923C140.805 42.2746 139.602 41.2087 138.202 40.4041L137.206 42.1379ZM140.229 44.8159C141.064 45.8815 141.715 47.1993 142.166 48.7913L144.09 48.2467C143.581 46.4467 142.824 44.8845 141.803 43.5821L140.229 44.8159ZM143.128 47.519H133.288V49.519H143.128V47.519ZM134.102 47.9377C133.389 46.9402 132.515 46.1019 131.484 45.4265L130.388 47.0994C131.213 47.6401 131.907 48.3058 132.474 49.1002L134.102 47.9377ZM131.477 45.4218C130.491 44.7882 129.392 44.3018 128.187 43.9574L127.637 45.8805C128.672 46.1761 129.589 46.5858 130.395 47.1041L131.477 45.4218ZM128.161 43.9505C126.96 43.6418 125.685 43.473 124.337 43.4393L124.287 45.4387C125.499 45.469 126.624 45.6202 127.663 45.8875L128.161 43.9505ZM124.337 43.4393C122.99 43.4056 121.614 43.5068 120.212 43.7406L120.54 45.7134C121.826 45.4991 123.074 45.4083 124.287 45.4387L124.337 43.4393ZM119.844 43.8803C118.777 44.5509 117.631 45.1319 116.405 45.6225L117.147 47.4795C118.481 46.946 119.735 46.311 120.908 45.5736L119.844 43.8803ZM116.405 45.6225C115.173 46.1152 113.893 46.5162 112.565 46.825L113.019 48.773C114.443 48.4418 115.819 48.0107 117.147 47.4795L116.405 45.6225ZM112.539 46.8316C111.242 47.1713 109.913 47.4186 108.551 47.5734L108.777 49.5606C110.231 49.3953 111.654 49.1307 113.045 48.7663L112.539 46.8316ZM108.549 47.5737C107.217 47.7285 105.904 47.7901 104.608 47.7593L104.56 49.7587C105.952 49.7918 107.359 49.7255 108.78 49.5603L108.549 47.5737ZM104.609 47.7593C103.5 47.7315 102.747 47.4322 102.234 46.9645L100.886 48.4415C101.845 49.3177 103.108 49.7224 104.559 49.7587L104.609 47.7593ZM102.216 46.9484C101.751 46.5437 101.456 45.9228 101.456 44.919H99.456C99.456 46.3472 99.8972 47.5822 100.904 48.4576L102.216 46.9484ZM101.456 44.919C101.456 44.3373 101.657 43.8879 102.085 43.5023L100.747 42.0157C99.8955 42.7821 99.456 43.7726 99.456 44.919H101.456ZM102.105 43.484C102.523 43.0862 103.107 42.847 103.96 42.847V40.847C102.701 40.847 101.589 41.2157 100.727 42.034L102.105 43.484ZM103.96 42.847C105.251 42.847 106.556 42.7642 107.876 42.5993L107.628 40.6147C106.388 40.7697 105.165 40.847 103.96 40.847V42.847ZM107.9 42.5959C109.225 42.3971 110.49 42.1147 111.692 41.7473L111.108 39.8346C110.006 40.1712 108.839 40.4328 107.604 40.618L107.9 42.5959ZM111.685 41.7495C112.941 41.376 114.092 40.8798 115.13 40.2565L114.102 38.5415C113.22 39.0701 112.227 39.5019 111.115 39.8324L111.685 41.7495ZM115.118 40.2638C116.212 39.6285 117.13 38.841 117.857 37.8967L116.271 36.6773C115.718 37.3969 115.004 38.0174 114.114 38.5342L115.118 40.2638ZM117.064 36.287H104.728V38.287H117.064V36.287ZM104.728 36.287C103.653 36.287 103.148 35.9884 102.897 35.6428L101.279 36.8191C102.052 37.8815 103.307 38.287 104.728 38.287V36.287ZM102.909 35.6599C102.509 35.0848 102.32 34.4828 102.32 33.831H100.32C100.32 34.9072 100.643 35.9051 101.267 36.802L102.909 35.6599ZM102.32 33.831C102.32 33.1649 102.501 32.5778 102.866 32.0423L101.214 30.9156C100.619 31.7882 100.32 32.769 100.32 33.831H102.32ZM102.861 32.05C103.114 31.686 103.625 31.375 104.728 31.375V29.375C103.271 29.375 101.99 29.7999 101.219 30.9079L102.861 32.05ZM104.728 31.375H138.136V29.375H104.728V31.375ZM116.832 14.823V14.919H118.832V14.823H116.832ZM116.832 14.919C116.832 15.3094 116.817 15.6816 116.787 16.0359L118.781 16.202C118.815 15.7883 118.832 15.3605 118.832 14.919H116.832ZM116.787 16.0359C116.758 16.3902 116.714 16.7261 116.656 17.0441L118.624 17.4019C118.694 17.0158 118.746 16.6157 118.781 16.202L116.787 16.0359ZM117.675 18.2224C121.204 18.0996 123.573 18.9204 125.026 20.4547L126.478 19.0792C124.475 16.9655 121.436 16.0903 117.605 16.2236L117.675 18.2224ZM125.032 20.4613C126.524 22.0075 127.358 24.6303 127.296 28.5832L129.296 28.6147C129.362 24.4396 128.5 21.1744 126.472 19.0726L125.032 20.4613ZM128.296 27.599H119.32V29.599H128.296V27.599ZM120.316 28.6912C120.49 26.8064 120.143 25.1708 119.032 24.0173L117.592 25.4046C118.145 25.9792 118.47 26.9355 118.324 28.5068L120.316 28.6912ZM119.032 24.0173C117.932 22.8747 116.452 22.4877 114.772 22.7117L115.036 24.6942C116.236 24.5343 117.028 24.8192 117.592 25.4046L119.032 24.0173ZM114.13 23.0697C112.796 24.7005 111.156 25.9122 109.197 26.7134L109.955 28.5645C112.22 27.6377 114.132 26.2255 115.678 24.3362L114.13 23.0697ZM109.197 26.7134C107.201 27.5299 105.17 27.935 103.096 27.935V29.935C105.438 29.935 107.727 29.476 109.955 28.5645L109.197 26.7134ZM103.096 27.935C102.091 27.935 101.298 27.6803 100.662 27.2156L99.482 28.8304C100.51 29.5816 101.733 29.935 103.096 29.935V27.935ZM100.677 27.2268C100.149 26.8253 99.872 26.2844 99.872 25.479H97.872C97.872 26.8496 98.3952 28.0046 99.4669 28.8191L100.677 27.2268ZM99.872 25.479C99.872 24.5128 100.106 23.9197 100.433 23.5538L98.9428 22.2202C98.1821 23.0703 97.872 24.2052 97.872 25.479H99.872ZM100.431 23.5559C100.82 23.1237 101.347 22.8525 102.092 22.778L101.892 20.7879C100.717 20.9055 99.7077 21.3703 98.9447 22.218L100.431 23.5559ZM102.093 22.7779C104.455 22.5382 106.394 21.7713 107.787 20.3781L106.373 18.9639C105.398 19.9386 103.945 20.5797 101.891 20.7881L102.093 22.7779ZM107.787 20.3781C109.193 18.9723 109.856 17.1155 109.856 14.919H107.856C107.856 16.6904 107.335 18.0016 106.373 18.9639L107.787 20.3781ZM109.856 14.919V14.823H107.856V14.919H109.856ZM108.856 13.823H102.616V15.823H108.856V13.823ZM102.616 13.823C102.172 13.823 101.817 13.7374 101.527 13.5925L100.633 15.3814C101.239 15.6846 101.908 15.823 102.616 15.823V13.823ZM101.554 13.6065C101.249 13.4421 101 13.2366 100.798 12.9897L99.25 14.2562C99.6241 14.7134 100.079 15.0839 100.606 15.3674L101.554 13.6065ZM100.798 12.9897C100.576 12.7184 100.406 12.4266 100.285 12.112L98.4187 12.83C98.6176 13.3473 98.8961 13.8236 99.25 14.2562L100.798 12.9897ZM100.294 12.1346C100.17 11.7879 100.112 11.4534 100.112 11.127H98.112C98.112 11.6965 98.2141 12.2581 98.4103 12.8073L100.294 12.1346ZM100.112 11.127C100.112 10.8143 100.16 10.4749 100.266 10.1057L98.3425 9.55625C98.192 10.083 98.112 10.6077 98.112 11.127H100.112ZM100.266 10.1057C100.357 9.78544 100.502 9.50812 100.702 9.26421L99.154 7.99773C98.7776 8.45782 98.507 8.9805 98.3425 9.55625L100.266 10.1057ZM100.728 9.23097C100.919 8.97661 101.164 8.77108 101.479 8.6134L100.585 6.82454C100.004 7.11486 99.5132 7.51732 99.128 8.03097L100.728 9.23097ZM101.479 8.6134C101.762 8.47212 102.131 8.38297 102.616 8.38297V6.38297C101.885 6.38297 101.198 6.51782 100.585 6.82454L101.479 8.6134ZM102.616 8.38297H108.712V6.38297H102.616V8.38297ZM109.712 7.38297V7.33497H107.712V7.38297H109.712ZM109.712 7.33497C109.712 6.07302 110.058 5.35029 110.555 4.93267L109.269 3.40126C108.166 4.32765 107.712 5.71692 107.712 7.33497H109.712ZM110.555 4.93267C111.11 4.4664 111.998 4.15897 113.368 4.15897V2.15897C111.73 2.15897 110.314 2.52354 109.269 3.40126L110.555 4.93267ZM113.368 4.15897C114.738 4.15897 115.626 4.4664 116.181 4.93267L117.467 3.40126C116.422 2.52354 115.006 2.15897 113.368 2.15897V4.15897ZM116.196 4.94491C116.718 5.36655 117.072 6.08548 117.072 7.33497H119.072C119.072 5.70446 118.594 4.31139 117.452 3.38903L116.196 4.94491ZM117.072 7.33497V7.38297H119.072V7.33497H117.072ZM118.072 8.38297H124.36V6.38297H118.072V8.38297ZM124.36 8.38297C124.846 8.38297 125.214 8.47212 125.497 8.6134L126.391 6.82454C125.778 6.51782 125.091 6.38297 124.36 6.38297V8.38297ZM125.497 8.6134C125.812 8.77108 126.057 8.97661 126.248 9.23097L127.848 8.03097C127.463 7.51732 126.972 7.11486 126.391 6.82454L125.497 8.6134ZM126.274 9.26421C126.474 9.50812 126.619 9.78544 126.71 10.1057L128.634 9.55625C128.469 8.9805 128.198 8.45782 127.822 7.99773L126.274 9.26421ZM126.71 10.1057C126.816 10.4749 126.864 10.8143 126.864 11.127H128.864C128.864 10.6077 128.784 10.083 128.634 9.55625L126.71 10.1057ZM126.864 11.127C126.864 11.4534 126.806 11.7879 126.682 12.1346L128.566 12.8073C128.762 12.2581 128.864 11.6965 128.864 11.127H126.864ZM126.691 12.112C126.57 12.4266 126.4 12.7184 126.178 12.9897L127.726 14.2562C128.08 13.8236 128.358 13.3473 128.557 12.83L126.691 12.112ZM126.178 12.9897C125.988 13.222 125.736 13.4252 125.401 13.5925L126.295 15.3814C126.856 15.1008 127.34 14.728 127.726 14.2562L126.178 12.9897ZM125.374 13.6065C125.132 13.7366 124.806 13.823 124.36 13.823V15.823C125.066 15.823 125.732 15.6853 126.322 15.3674L125.374 13.6065ZM124.36 13.823H117.832V15.823H124.36V13.823ZM132.368 8.19897C132.368 6.83452 132.764 5.96395 133.413 5.40438L132.107 3.88956C130.9 4.92999 130.368 6.42742 130.368 8.19897H132.368ZM133.4 5.41519C134.176 4.76887 135.068 4.44697 136.12 4.44697V2.44697C134.612 2.44697 133.264 2.92506 132.12 3.87875L133.4 5.41519ZM136.12 4.44697C137.123 4.44697 137.995 4.77313 138.777 5.45066L140.087 3.93928C138.949 2.95281 137.613 2.44697 136.12 2.44697V4.44697ZM138.792 5.46319C139.472 6.0302 139.872 6.8853 139.872 8.19897H141.872C141.872 6.44064 141.312 4.95974 140.072 3.92675L138.792 5.46319ZM139.872 8.19897V11.655H141.872V8.19897H139.872ZM140.872 12.655H142.36V10.655H140.872V12.655ZM142.36 12.655C142.987 12.655 143.42 12.765 143.713 12.9213L144.655 11.1566C143.988 10.801 143.205 10.655 142.36 10.655V12.655ZM143.713 12.9213C144.082 13.1177 144.347 13.3468 144.536 13.599L146.136 12.399C145.749 11.8832 145.246 11.4723 144.655 11.1566L143.713 12.9213ZM144.536 13.599C144.736 13.8662 144.891 14.1899 144.99 14.5855L146.93 14.1004C146.773 13.4721 146.512 12.8998 146.136 12.399L144.536 13.599ZM144.994 14.6006C145.1 14.9995 145.152 15.393 145.152 15.783H147.152C147.152 15.213 147.076 14.6464 146.926 14.0853L144.994 14.6006ZM145.152 15.783C145.152 16.1736 145.1 16.588 144.99 17.0284L146.93 17.5135C147.076 16.93 147.152 16.3524 147.152 15.783H145.152ZM144.994 17.0133C144.896 17.3799 144.737 17.7227 144.514 18.0458L146.158 19.1842C146.511 18.6752 146.768 18.1221 146.926 17.5286L144.994 17.0133ZM144.536 18.015C144.357 18.2531 144.088 18.4807 143.689 18.6805L144.583 20.4694C145.208 20.1572 145.739 19.7449 146.136 19.215L144.536 18.015ZM143.713 18.6688C143.402 18.8142 142.964 18.911 142.36 18.911V20.911C143.164 20.911 143.91 20.7838 144.559 20.4812L143.713 18.6688ZM142.36 18.911H140.872V20.911H142.36V18.911ZM139.872 19.911V28.791H141.872V19.911H139.872ZM140.872 27.791H131.368V29.791H140.872V27.791ZM132.368 28.791V8.19897H130.368V28.791H132.368ZM178.648 48.519H177.648V49.519H178.648V48.519ZM180.088 4.64697L179.448 3.87875L179.448 3.87875L180.088 4.64697ZM186.808 4.64697L187.448 3.87875V3.87875L186.808 4.64697ZM188.248 48.519V49.519H189.248V48.519H188.248ZM148.984 38.631L148.889 37.6354L148.879 37.6365L148.984 38.631ZM154.456 37.479L154.789 38.422L154.799 38.4182L154.456 37.479ZM161.32 29.943L160.368 29.636L160.366 29.643L160.364 29.65L161.32 29.943ZM161.944 13.911L161.185 14.5618L161.21 14.5909L161.237 14.6181L161.944 13.911ZM148.216 13.239L147.769 14.1334L147.801 14.1497L147.835 14.1636L148.216 13.239ZM146.92 12.279L146.183 12.9547L146.183 12.9547L146.92 12.279ZM146.104 10.983L145.15 11.2812L145.161 11.3183L145.176 11.3544L146.104 10.983ZM146.104 8.00697L145.168 7.65585L145.161 7.67318L145.155 7.69074L146.104 8.00697ZM146.92 6.66297L147.657 7.33869L147.671 7.32406L147.683 7.30891L146.92 6.66297ZM148.216 5.65497L147.79 4.75015L147.779 4.75522L147.769 4.76054L148.216 5.65497ZM170.152 7.09497L170.878 6.40722V6.40722L170.152 7.09497ZM170.152 33.543L169.218 33.1853L169.215 33.194L170.152 33.543ZM165.496 40.935L164.801 40.2164L165.496 40.935ZM158.488 45.159L158.172 44.2103L158.168 44.2114L158.488 45.159ZM149.896 46.599V47.599H149.906L149.917 47.5988L149.896 46.599ZM146.632 45.591L147.25 44.8046L147.242 44.7983L146.632 45.591ZM145.624 44.343L146.518 43.8958L145.624 44.343ZM145.288 42.471L144.29 42.4086L144.289 42.4181L144.289 42.4275L145.288 42.471ZM146.248 39.879L145.491 39.2254L145.482 39.2354L145.474 39.2457L146.248 39.879ZM179.648 48.519V8.19897H177.648V48.519H179.648ZM179.648 8.19897C179.648 6.84555 180.053 5.9782 180.728 5.41519L179.448 3.87875C178.203 4.91574 177.648 6.41639 177.648 8.19897H179.648ZM180.728 5.41519C181.504 4.76887 182.396 4.44697 183.448 4.44697V2.44697C181.94 2.44697 180.592 2.92506 179.448 3.87875L180.728 5.41519ZM183.448 4.44697C184.5 4.44697 185.392 4.76887 186.168 5.41519L187.448 3.87875C186.304 2.92506 184.956 2.44697 183.448 2.44697V4.44697ZM186.168 5.41519C186.843 5.9782 187.248 6.84555 187.248 8.19897H189.248C189.248 6.41639 188.693 4.91574 187.448 3.87875L186.168 5.41519ZM187.248 8.19897V48.519H189.248V8.19897H187.248ZM188.248 47.519H178.648V49.519H188.248V47.519ZM149.079 39.6265C151.163 39.428 153.068 39.0292 154.789 38.422L154.123 36.536C152.58 37.0807 150.837 37.4499 148.889 37.6355L149.079 39.6265ZM154.799 38.4182C156.6 37.7603 158.141 36.7655 159.406 35.4307L157.954 34.0552C156.915 35.1524 155.64 35.9817 154.113 36.5397L154.799 38.4182ZM159.406 35.4307C160.686 34.0791 161.633 32.333 162.276 30.236L160.364 29.65C159.791 31.5209 158.978 32.9748 157.954 34.0552L159.406 35.4307ZM162.272 30.25C162.954 28.1352 163.28 25.5598 163.28 22.551H161.28C161.28 25.4301 160.966 27.7827 160.368 29.636L162.272 30.25ZM163.28 22.551V14.775H161.28V22.551H163.28ZM163.28 14.775C163.28 14.1901 163.084 13.6371 162.651 13.2039L161.237 14.6181C161.252 14.6329 161.28 14.6559 161.28 14.775H163.28ZM162.703 13.2602C162.268 12.7519 161.662 12.575 161.08 12.575V14.575C161.177 14.575 161.217 14.5894 161.222 14.591C161.223 14.5916 161.218 14.5895 161.209 14.5832C161.199 14.5767 161.191 14.569 161.185 14.5618L162.703 13.2602ZM161.08 12.575H150.136V14.575H161.08V12.575ZM150.136 12.575C149.499 12.575 148.994 12.4778 148.597 12.3143L147.835 14.1636C148.526 14.4482 149.301 14.575 150.136 14.575V12.575ZM148.663 12.3445C148.25 12.1377 147.919 11.8888 147.657 11.6032L146.183 12.9547C146.625 13.4372 147.158 13.8282 147.769 14.1334L148.663 12.3445ZM147.657 11.6032C147.386 11.3076 147.179 10.9785 147.032 10.6116L145.176 11.3544C145.413 11.9474 145.75 12.4823 146.183 12.9547L147.657 11.6032ZM147.058 10.6847C146.927 10.2646 146.864 9.85308 146.864 9.44697H144.864C144.864 10.0649 144.961 10.6773 145.15 11.2812L147.058 10.6847ZM146.864 9.44697C146.864 9.08015 146.925 8.70678 147.053 8.3232L145.155 7.69074C144.963 8.26716 144.864 8.85379 144.864 9.44697H146.864ZM147.04 8.35809C147.19 7.96 147.396 7.6236 147.657 7.33869L146.183 5.98724C145.74 6.47034 145.402 7.02994 145.168 7.65585L147.04 8.35809ZM147.683 7.30891C147.944 7.00148 148.266 6.74795 148.663 6.5494L147.769 4.76054C147.142 5.074 146.6 5.49246 146.157 6.01702L147.683 7.30891ZM148.642 6.55979C149.026 6.37891 149.515 6.27097 150.136 6.27097V4.27097C149.285 4.27097 148.494 4.41903 147.79 4.75015L148.642 6.55979ZM150.136 6.27097H164.344V4.27097H150.136V6.27097ZM164.344 6.27097C166.955 6.27097 168.552 6.86054 169.426 7.78271L170.878 6.40722C169.448 4.8974 167.173 4.27097 164.344 4.27097V6.27097ZM169.426 7.78271C170.349 8.75747 170.88 10.2065 170.88 12.279H172.88C172.88 9.87144 172.259 7.86447 170.878 6.40722L169.426 7.78271ZM170.88 12.279V22.599H172.88V12.279H170.88ZM170.88 22.599C170.88 26.8029 170.315 30.3224 169.218 33.1853L171.086 33.9006C172.293 30.7475 172.88 26.9711 172.88 22.599H170.88ZM169.215 33.194C168.138 36.085 166.661 38.4156 164.801 40.2164L166.191 41.6536C168.299 39.6143 169.926 37.017 171.089 33.8919L169.215 33.194ZM164.801 40.2164C162.927 42.0295 160.722 43.3603 158.172 44.2103L158.804 46.1077C161.63 45.1656 164.097 43.6805 166.191 41.6536L164.801 40.2164ZM158.168 44.2114C155.618 45.072 152.855 45.5371 149.875 45.5992L149.917 47.5988C153.081 47.5328 156.046 47.038 158.808 46.1065L158.168 44.2114ZM149.896 45.599C149.414 45.599 148.928 45.5322 148.436 45.3955L147.9 47.3225C148.56 47.5058 149.226 47.599 149.896 47.599V45.599ZM148.436 45.3955C147.981 45.269 147.589 45.071 147.25 44.8047L146.014 46.3773C146.571 46.8149 147.203 47.1289 147.9 47.3225L148.436 45.3955ZM147.242 44.7983C146.956 44.5786 146.713 44.285 146.518 43.8958L144.73 44.7902C145.047 45.4249 145.476 45.9633 146.022 46.3836L147.242 44.7983ZM146.518 43.8958C146.357 43.5733 146.26 43.1281 146.287 42.5144L144.289 42.4275C144.252 43.2858 144.379 44.0887 144.73 44.7902L146.518 43.8958ZM146.286 42.5333C146.339 41.6905 146.595 41.0337 147.022 40.5122L145.474 39.2457C144.749 40.1322 144.365 41.2034 144.29 42.4086L146.286 42.5333ZM147.005 40.5326C147.4 40.0753 148.044 39.7355 149.089 39.6255L148.879 37.6365C147.492 37.7825 146.312 38.2747 145.491 39.2254L147.005 40.5326Z" fill="#F17896"/>
</svg>
